HIERARCHY
ROOT Hips
{
	OFFSET 0.00000 0.00000 0.00000
	CHANNELS 6 Xposition Yposition Zposition Zrotation Yrotation Xrotation 
	JOINT LHipJoint
	{
		OFFSET 0 0 0
		CHANNELS 3 Zrotation Yrotation Xrotation
		JOINT LeftUpLeg
		{
			OFFSET 1.56857 -1.73443 1.15205
			CHANNELS 3 Zrotation Yrotation Xrotation
			JOINT LeftLeg
			{
				OFFSET 2.39362 -6.57643 0.00000
				CHANNELS 3 Zrotation Yrotation Xrotation
				JOINT LeftFoot
				{
					OFFSET 2.50952 -6.89485 0.00000
					CHANNELS 3 Zrotation Yrotation Xrotation
					JOINT LeftToeBase
					{
						OFFSET 0.17171 -0.47178 1.88682
						CHANNELS 3 Zrotation Yrotation Xrotation
						End Site
						{
							OFFSET 0.00000 -0.00000 0.98146
						}
					}
				}
			}
		}
	}
	JOINT RHipJoint
	{
		OFFSET 0 0 0
		CHANNELS 3 Zrotation Yrotation Xrotation
		JOINT RightUpLeg
		{
			OFFSET -1.28153 -1.73443 1.15205
			CHANNELS 3 Zrotation Yrotation Xrotation
			JOINT RightLeg
			{
				OFFSET -2.26861 -6.23296 0.00000
				CHANNELS 3 Zrotation Yrotation Xrotation
				JOINT RightFoot
				{
					OFFSET -2.54143 -6.98254 0.00000
					CHANNELS 3 Zrotation Yrotation Xrotation
					JOINT RightToeBase
					{
						OFFSET -0.23309 -0.64041 1.93119
						CHANNELS 3 Zrotation Yrotation Xrotation
						End Site
						{
							OFFSET -0.00000 -0.00000 1.02013
						}
					}
				}
			}
		}
	}
	JOINT LowerBack
	{
		OFFSET 0 0 0
		CHANNELS 3 Zrotation Yrotation Xrotation
		JOINT Spine
		{
			OFFSET -0.07096 2.10460 -0.27878
			CHANNELS 3 Zrotation Yrotation Xrotation
			JOINT Spine1
			{
				OFFSET -0.00826 2.13662 -0.08279
				CHANNELS 3 Zrotation Yrotation Xrotation
				JOINT Neck
				{
					OFFSET 0 0 0
					CHANNELS 3 Zrotation Yrotation Xrotation
					JOINT Neck1
					{
						OFFSET 0.03239 1.77799 0.24435
						CHANNELS 3 Zrotation Yrotation Xrotation
						JOINT Head
						{
							OFFSET 0.01026 1.74194 -0.49664
							CHANNELS 3 Zrotation Yrotation Xrotation
							End Site
							{
								OFFSET 0.00170 1.83057 -0.19653
							}
						}
					}
				}
				JOINT LeftShoulder
				{
					OFFSET 0 0 0
					CHANNELS 3 Zrotation Yrotation Xrotation
					JOINT LeftArm
					{
						OFFSET 3.19178 1.35907 -0.31412
						CHANNELS 3 Zrotation Yrotation Xrotation
						JOINT LeftForeArm
						{
							OFFSET 4.85247 -0.00000 -0.00000
							CHANNELS 3 Zrotation Yrotation Xrotation
							JOINT LeftHand
							{
								OFFSET 3.55584 -0.00000 0.00000
								CHANNELS 3 Zrotation Yrotation Xrotation
								JOINT LeftFingerBase
								{
									OFFSET 0 0 0
									CHANNELS 3 Zrotation Yrotation Xrotation
									JOINT LeftHandIndex1
									{
										OFFSET 0.69320 -0.00000 0.00000
										CHANNELS 3 Zrotation Yrotation Xrotation
										End Site
										{
											OFFSET 0.55888 -0.00000 0.00000
										}
									}
								}
								JOINT LThumb
								{
									OFFSET 0 0 0
									CHANNELS 3 Zrotation Yrotation Xrotation
									End Site
									{
										OFFSET 0.56741 -0.00000 0.56741
									}
								}
							}
						}
					}
				}
				JOINT RightShoulder
				{
					OFFSET 0 0 0
					CHANNELS 3 Zrotation Yrotation Xrotation
					JOINT RightArm
					{
						OFFSET -3.28999 1.24191 -0.26899
						CHANNELS 3 Zrotation Yrotation Xrotation
						JOINT RightForeArm
						{
							OFFSET -4.64462 -0.00000 0.00000
							CHANNELS 3 Zrotation Yrotation Xrotation
							JOINT RightHand
							{
								OFFSET -3.40703 -0.00000 0.00000
								CHANNELS 3 Zrotation Yrotation Xrotation
								JOINT RightFingerBase
								{
									OFFSET 0 0 0
									CHANNELS 3 Zrotation Yrotation Xrotation
									JOINT RightHandIndex1
									{
										OFFSET -0.61958 -0.00000 0.00000
										CHANNELS 3 Zrotation Yrotation Xrotation
										End Site
										{
											OFFSET -0.49952 -0.00000 0.00000
										}
									}
								}
								JOINT RThumb
								{
									OFFSET 0 0 0
									CHANNELS 3 Zrotation Yrotation Xrotation
									End Site
									{
										OFFSET -0.50715 -0.00000 0.50715
									}
								}
							}
						}
					}
				}
			}
		}
	}
}
MOTION
Frames: 8
Frame Time: .0083333
-27.3762 15.7679 0.1489 0 0 0 0 0 0 -21 0 0 0 0 0 0 0 0 0 0 0 0 0 0 21 0 0 0 0 0 0 0 0 0 0 0 0 0 0 0 0 0 0 0 0 0 0 -16 0 0 21 0 0 11 0 0 0 -8 0 0 0 0 0 0 0 0 0 0 0 0 0 0 0 0 0 0 0 0 8 0 0 0 0 0 0 0 0 0 0 0 0 0 0 0 0 0
-27.3762 15.7679 0.1489 123.2280 71.1198 129.7970 0.0000 0.0000 0.0000 -33.6944 6.0174 21.6400 0.9160 6.0983 17.0699 0.2340 -8.8488 -9.9109 0.7557 -5.5519 -15.4897 0.0000 0.0000 0.0000 -6.4467 2.5633 -56.9335 -14.8596 -19.3543 74.8135 -39.7028 1.9851 168.7804 -0.3104 -3.5815 9.9021 -17.7735 -5.1171 16.7778 -5.1394 -9.5098 3.6537 5.8993 -4.3318 -3.3091 3.2490 4.2184 -30.3758 2.6077 3.7090 24.4540 1.2407 2.3468 13.2676 0.0000 0.0000 0.0000 -70.6734 -34.3999 47.4102 85.4054 -59.9201 -56.0220 -0.0000 0.0000 -10.9321 57.0560 -32.8109 -39.9021 -7.1250 0.0000 -0.0000 13.0849 -18.7890 -16.9568 0.0000 0.0000 0.0000 49.5695 -52.9404 67.3675 -53.2471 54.2240 -28.7884 0.0000 -0.0000 -19.4176 -34.4080 -21.2653 13.9505 7.1250 -0.0000 -0.0000 -6.2285 -55.1261 1.5531
-26.6887 15.8250 0.1737 124.2750 71.5501 130.8650 0.0000 0.0000 0.0000 -31.0661 7.4743 24.1096 0.7237 5.4357 15.1556 -0.0678 -7.8713 -3.9256 0.0733 -1.7466 -4.8059 0.0000 0.0000 0.0000 -6.1121 3.3724 -57.7869 -17.8877 -19.8927 83.8133 -44.7914 40.0153 142.1576 -0.2808 -3.4083 9.4177 -17.9032 -5.4637 16.0280 -4.6636 -9.8281 3.6463 6.4033 -4.5630 -2.7320 3.5803 4.6437 -29.8950 2.0154 4.3717 24.5670 1.0756 2.5780 13.2462 -0.0000 0.0000 0.0000 -68.9292 -35.3193 46.7995 89.1047 -59.9970 -59.2246 -0.0000 0.0000 -12.3158 57.9321 -34.1321 -41.8473 -7.1250 0.0000 -0.0000 13.0363 -20.8499 -17.1642 -0.0000 0.0000 0.0000 45.9921 -54.1355 69.9756 -54.1123 54.5252 -29.4917 0.0000 -0.0000 -20.2250 -34.0484 -20.1988 13.1332 7.1250 -0.0000 -0.0000 -5.9431 -53.8249 1.2930
-25.9966 15.8953 0.1773 122.0750 70.0492 128.8800 0.0000 0.0000 0.0000 -31.1462 8.6455 26.1423 0.6352 5.0992 14.1916 -0.1143 -6.4406 -0.1889 0.0667 -1.6661 -4.5838 0.0000 0.0000 0.0000 -8.4371 2.9276 -58.4111 -19.9862 -20.0000 89.9597 5.1351 60.2847 75.8897 -0.2104 -2.9529 8.1477 -19.8351 -5.8376 15.3287 -4.8316 -10.4301 3.5747 7.1337 -4.9001 -1.9624 4.2886 5.1846 -29.7710 1.1828 5.0923 25.0788 0.7862 2.8370 13.4869 0.0000 0.0000 0.0000 -67.0449 -35.6902 46.3005 92.1986 -59.9817 -61.9039 -0.0000 0.0000 -11.3044 58.7716 -33.7257 -42.4818 -7.1250 0.0000 -0.0000 13.6109 -20.9832 -17.9715 0.0000 0.0000 0.0000 42.7159 -55.0817 72.4690 -55.0486 54.8393 -30.2557 0.0000 -0.0000 -20.9996 -33.5303 -19.6171 12.5425 7.1250 -0.0000 -0.0000 -5.4420 -53.0489 1.0801
-25.2339 15.9487 0.1617 121.8220 68.4341 128.0490 0.0000 0.0000 0.0000 -31.2903 9.4733 29.2019 0.6088 4.9942 13.8921 -0.1013 -6.1062 -0.2794 0.0587 -1.5636 -4.3011 0.0000 0.0000 0.0000 -10.3641 1.4096 -57.0625 -18.6719 -19.9577 86.1142 5.1867 36.5249 14.7892 -0.1309 -2.3323 6.4251 -21.3821 -6.4173 14.5366 -5.0424 -11.1004 3.9139 7.5260 -5.3475 -0.7050 4.6088 5.6420 -29.6544 0.8555 5.7216 25.5132 0.7395 3.0933 13.6783 0.0000 0.0000 0.0000 -65.1919 -35.6114 45.7329 95.2895 -59.8940 -64.5792 -0.0000 0.0000 -11.0106 58.9101 -34.0878 -42.9063 -7.1250 0.0000 -0.0000 13.5425 -21.4782 -17.9411 0.0000 0.0000 0.0000 39.5067 -55.9715 74.7602 -56.6344 55.3443 -31.5562 0.0000 -0.0000 -21.3407 -32.7174 -19.9636 12.3711 7.1250 -0.0000 -0.0000 -4.5318 -53.2756 0.9240
-24.5657 15.9969 0.1850 124.7540 69.9127 131.1690 0.0000 0.0000 0.0000 -28.8491 8.7013 30.9706 0.6754 5.2552 14.6378 -0.0050 -4.2098 -2.7438 0.0600 -1.5803 -4.3472 0.0000 0.0000 0.0000 -8.4066 2.4753 -56.9152 -15.5798 -19.5250 76.9771 -0.3707 -1.2312 -12.0145 -0.1704 -2.6591 7.3310 -20.0969 -6.8668 13.7885 -4.2578 -11.4016 3.8432 7.6313 -5.5759 -0.3965 5.1264 6.2180 -29.7158 0.0135 6.5894 25.9756 0.5115 3.3888 13.9578 0.0000 0.0000 0.0000 -63.6750 -35.3514 45.2129 97.7603 -59.7712 -66.7154 -0.0000 0.0000 -8.7361 59.7968 -32.8917 -43.0129 -7.1250 0.0000 -0.0000 14.4421 -20.7890 -19.0959 0.0000 0.0000 0.0000 36.3554 -56.7794 76.6645 -58.7353 55.9634 -33.2909 0.0000 -0.0000 -20.9842 -31.6179 -19.8504 11.8076 7.1250 -0.0000 -0.0000 -3.3758 -52.9229 0.6587
-23.9013 16.0395 0.1898 128.5700 71.4255 135.3390 0.0000 0.0000 0.0000 -27.0397 7.2743 32.4225 0.8330 5.8223 16.2698 0.0797 -1.2067 -5.0458 0.0251 -1.0233 -2.8129 0.0000 0.0000 0.0000 -6.4109 3.3216 -56.4221 -12.8296 -18.7198 68.5955 -0.4658 -1.7947 -13.6700 -0.2910 -3.4688 9.5867 -18.4087 -7.3614 12.8583 -3.4373 -11.7051 3.7438 7.5315 -5.7980 -0.1004 5.3381 6.5701 -29.6028 -0.4254 7.1591 26.1931 0.4220 3.5875 14.0733 0.0000 0.0000 0.0000 -62.5515 -34.8359 44.7832 99.7423 -59.6383 -68.4268 -0.0000 0.0000 -8.6178 59.9622 -34.1221 -44.1314 -7.1250 0.0000 -0.0000 14.0561 -22.2663 -18.7554 0.0000 0.0000 0.0000 33.7531 -57.3602 77.8457 -60.3770 56.4096 -34.6550 0.0000 -0.0000 -20.1061 -30.2837 -18.8766 10.6989 7.1250 -0.0000 -0.0000 -2.1262 -51.5688 0.3441
-23.2347 16.0767 0.1846 132.1470 72.4468 139.0350 0.0000 0.0000 0.0000 -25.9160 5.8719 33.8203 1.1143 6.7063 18.8481 0.1249 1.1579 -7.2043 0.0279 1.0786 2.9650 0.0000 0.0000 0.0000 -4.8721 3.8244 -55.1785 -10.0946 -17.4627 59.8042 -0.4382 -3.0616 -14.0030 -0.1362 -2.3789 6.5539 -17.2127 -7.7478 12.2238 -2.6599 -11.9956 3.6678 7.6560 -5.9987 0.1498 5.3971 6.7128 -29.2361 -1.0272 7.5535 26.0025 0.2390 3.6753 13.9643 -0.0000 0.0000 0.0000 -62.1045 -33.8400 44.9211 101.2116 -59.5197 -69.6939 -0.0000 0.0000 -7.3710 60.9466 -33.8383 -45.0682 -7.1250 0.0000 -0.0000 14.6611 -22.6817 -19.6571 -0.0000 0.0000 0.0000 31.5814 -57.9179 78.4526 -61.5964 56.7205 -35.6725 0.0000 -0.0000 -18.9982 -28.9772 -17.6212 9.5168 7.1250 -0.0000 -0.0000 -0.9907 -49.9321 0.1205
